<svg width="25" height="25" viewBox="0 0 25 25" fill="none" xmlns="http://www.w3.org/2000/svg">
<circle cx="12.5" cy="12.5" r="11.5" fill="#FF4F4F"/>
<path fill-rule="evenodd" clip-rule="evenodd" d="M16.3198 9.64912L13.4858 12.4863L16.3198 15.3235C16.5982 15.6022 16.5982 16.0316 16.3198 16.3103C16.1966 16.4337 16.0141 16.525 15.8269 16.525C15.6444 16.525 15.4573 16.4656 15.3341 16.3103L12.5 13.4731L9.66594 16.3103C9.54272 16.4337 9.36017 16.525 9.17306 16.525C8.99051 16.525 8.8034 16.4656 8.68018 16.3103C8.40179 16.0316 8.40179 15.6022 8.68018 15.3235L11.5142 12.4863L8.68018 9.64912C8.40179 9.37043 8.40179 8.94097 8.68018 8.66228C8.95856 8.38359 9.38755 8.38359 9.66594 8.66228L12.5 11.4995L15.3341 8.66228C15.6124 8.38359 16.0734 8.38359 16.3198 8.66228C16.5982 8.94097 16.5982 9.37043 16.3198 9.64912ZM12.5 23.5837C6.40288 23.5837 1.41475 18.6175 1.41475 12.4863C1.41475 6.38249 6.37094 1.38889 12.5 1.38889C18.5971 1.38889 23.5853 6.35051 23.5853 12.4863C23.5579 18.5901 18.5971 23.5837 12.5 23.5837ZM12.5 0C5.60424 0 0 5.61038 0 12.4863C0 19.3896 5.60424 25 12.5 25C19.3958 25 25 19.3896 25 12.4863C24.9726 5.5784 19.3684 0 12.5 0Z" fill="white"/>
</svg>
