<svg width="302" height="450" viewBox="0 0 302 450" fill="none" xmlns="http://www.w3.org/2000/svg">
<rect x="1" y="1" width="300.207" height="447.688" rx="10" fill="#00CD5C"/>
<path fill-rule="evenodd" clip-rule="evenodd" d="M18.842 448.033C19.1542 446.881 19.3204 445.672 19.3204 444.427C19.3204 436.701 12.9175 430.368 4.93358 430.368C4.03771 430.368 3.16175 430.448 2.3125 430.601V428.573C3.16595 428.438 4.04144 428.368 4.93358 428.368C13.9838 428.368 21.3204 435.558 21.3204 444.427C21.3204 445.667 21.1771 446.874 20.9059 448.033H18.842Z" fill="white"/>
<path fill-rule="evenodd" clip-rule="evenodd" d="M282.71 448.033C282.398 446.881 282.231 445.672 282.231 444.428C282.231 436.701 288.634 430.368 296.618 430.368C297.514 430.368 298.39 430.448 299.239 430.601V428.573C298.386 428.438 297.51 428.368 296.618 428.368C287.568 428.368 280.231 435.558 280.231 444.428C280.231 445.667 280.375 446.874 280.646 448.033H282.71Z" fill="white"/>
<rect x="1.65527" y="1.65544" width="298.24" height="447.033" rx="10" stroke="white" stroke-width="2"/>
<line x1="1.65527" y1="225.483" x2="299.896" y2="225.483" stroke="white" stroke-width="2"/>
<circle cx="150.775" cy="225.5" r="38.6561" stroke="white" stroke-width="2"/>
<circle cx="150.447" cy="225.827" r="3.93284" fill="white"/>
<rect x="64.9258" y="2" width="171.7" height="68.7911" stroke="white" stroke-width="2"/>
<rect x="111.465" y="2" width="78.6232" height="22.2525" stroke="white" stroke-width="2"/>
<path fill-rule="evenodd" clip-rule="evenodd" d="M118.073 71.7911C121.784 81.9687 134.873 89.4889 150.449 89.4889C166.026 89.4889 179.114 81.9687 182.825 71.7911H180.677C179.25 75.2206 176.593 78.3606 172.934 80.9435C167.26 84.9486 159.317 87.4889 150.449 87.4889C141.582 87.4889 133.638 84.9486 127.965 80.9435C124.306 78.3606 121.648 75.2206 120.221 71.7911H118.073Z" fill="white"/>
<circle cx="150.775" cy="49.8327" r="3.6051" fill="white"/>
<rect x="236.624" y="448.344" width="171.7" height="69.4466" transform="rotate(180 236.624 448.344)" stroke="white" stroke-width="2"/>
<rect x="190.086" y="448.344" width="78.6232" height="22.2525" transform="rotate(180 190.086 448.344)" stroke="white" stroke-width="2"/>
<path fill-rule="evenodd" clip-rule="evenodd" d="M183.476 378.159C179.765 367.831 166.676 360.199 151.1 360.199C135.523 360.199 122.435 367.831 118.724 378.159H120.867C122.296 374.662 124.962 371.464 128.626 368.839C134.299 364.775 142.238 362.199 151.1 362.199C159.961 362.199 167.9 364.775 173.573 368.839C177.238 371.464 179.903 374.662 181.332 378.159H183.476Z" fill="white"/>
<ellipse cx="150.774" cy="400.443" rx="3.6051" ry="3.65851" transform="rotate(180 150.774 400.443)" fill="white"/>
<path fill-rule="evenodd" clip-rule="evenodd" d="M18.842 2.31093C19.1542 3.46268 19.3204 4.67126 19.3204 5.91602C19.3204 13.6427 12.9175 19.9751 4.93358 19.9751C4.03771 19.9751 3.16175 19.8954 2.3125 19.7429V21.7708C3.16595 21.9052 4.04144 21.9751 4.93358 21.9751C13.9838 21.9751 21.3204 14.7852 21.3204 5.91602C21.3204 4.67651 21.1771 3.4698 20.9059 2.31093H18.842Z" fill="white"/>
<path fill-rule="evenodd" clip-rule="evenodd" d="M282.71 2.31096C282.398 3.46271 282.231 4.67129 282.231 5.91606C282.231 13.6428 288.634 19.9751 296.618 19.9751C297.514 19.9751 298.39 19.8954 299.239 19.7429V21.7708C298.386 21.9053 297.51 21.9752 296.618 21.9752C287.568 21.9752 280.231 14.7852 280.231 5.91606C280.231 4.67655 280.375 3.46983 280.646 2.31096H282.71Z" fill="white"/>
</svg>
