<svg width="458" height="684" viewBox="0 0 458 684" fill="none" xmlns="http://www.w3.org/2000/svg">
<rect width="458" height="683" rx="15" fill="#00CD5C"/>
<path fill-rule="evenodd" clip-rule="evenodd" d="M28.307 682C28.7597 680.239 29 678.396 29 676.5C29 664.111 18.7408 654 6 654C4.63499 654 3.29847 654.116 2 654.339V652.312C3.30243 652.107 4.63851 652 6 652C19.8071 652 31 662.969 31 676.5C31 678.391 30.7814 680.232 30.3676 682H28.307Z" fill="white"/>
<path fill-rule="evenodd" clip-rule="evenodd" d="M428.693 682C428.24 680.239 428 678.396 428 676.5C428 664.111 438.259 654 451 654C452.365 654 453.702 654.116 455 654.339V652.312C453.698 652.107 452.361 652 451 652C437.193 652 426 662.969 426 676.5C426 678.391 426.219 680.232 426.632 682H428.693Z" fill="white"/>
<rect x="1" y="1" width="455" height="682" rx="14" stroke="white" stroke-width="2"/>
<line x1="1" y1="343" x2="456" y2="343" stroke="white" stroke-width="2"/>
<circle cx="228.5" cy="342.5" r="59.5" stroke="white" stroke-width="2"/>
<circle cx="228" cy="343" r="6" fill="white"/>
<rect x="97" y="1" width="263" height="106" stroke="white" stroke-width="2"/>
<rect x="168" y="1" width="121" height="35" stroke="white" stroke-width="2"/>
<path fill-rule="evenodd" clip-rule="evenodd" d="M178.607 108C184.268 123.527 204.236 135 228 135C251.764 135 271.732 123.527 277.393 108H275.252C273.027 113.605 268.759 118.693 262.909 122.822C254.056 129.071 241.72 133 228 133C214.28 133 201.944 129.071 193.091 122.822C187.241 118.693 182.973 113.605 180.748 108H178.607Z" fill="white"/>
<circle cx="228.5" cy="74.5" r="5.5" fill="white"/>
<rect x="360" y="683" width="263" height="107" transform="rotate(180 360 683)" stroke="white" stroke-width="2"/>
<rect x="289" y="683" width="121" height="35" transform="rotate(180 289 683)" stroke="white" stroke-width="2"/>
<path fill-rule="evenodd" clip-rule="evenodd" d="M278.393 575.4C272.732 559.643 252.764 548 229 548C205.236 548 185.268 559.643 179.607 575.4H181.744C183.97 569.694 188.247 564.52 194.102 560.326C202.955 553.985 215.287 550 229 550C242.713 550 255.045 553.985 263.898 560.326C269.753 564.52 274.03 569.694 276.256 575.4H278.393Z" fill="white"/>
<ellipse cx="228.5" cy="609.396" rx="5.5" ry="5.58148" transform="rotate(180 228.5 609.396)" fill="white"/>
<path fill-rule="evenodd" clip-rule="evenodd" d="M28.307 2C28.7597 3.76127 29 5.60397 29 7.5C29 19.8885 18.7408 30 6 30C4.63499 30 3.29847 29.8839 2 29.6614V31.6881C3.30243 31.8933 4.63851 32 6 32C19.8071 32 31 21.031 31 7.5C31 5.60898 30.7814 3.768 30.3676 2H28.307Z" fill="white"/>
<path fill-rule="evenodd" clip-rule="evenodd" d="M428.693 2C428.24 3.76127 428 5.60397 428 7.5C428 19.8885 438.259 30 451 30C452.365 30 453.702 29.8839 455 29.6614V31.6881C453.698 31.8933 452.361 32 451 32C437.193 32 426 21.031 426 7.5C426 5.60898 426.219 3.768 426.632 2H428.693Z" fill="white"/>
</svg>
