<svg width="34" height="33" viewBox="0 0 34 33" fill="none" xmlns="http://www.w3.org/2000/svg">
<path d="M30.8179 7.8545C29.6612 6.23955 28.5056 4.62461 27.3311 2.99805C27.1659 2.78945 26.9396 2.60593 26.7133 2.49582C26.6582 2.47135 21.4647 0.0611722 21.2255 0.0183518C21.1894 0.00611734 21.1527 0.00611735 21.116 0.00611735H20.804C20.7912 0.00611735 20.7857 0.0122344 20.7667 0.0122344C20.7245 0.0183516 20.6878 0.0244688 20.645 0.0367032C20.6083 0.0489377 20.5716 0.0550548 20.541 0.0734065C20.5037 0.0917581 20.4792 0.11011 20.4431 0.134579C20.4125 0.159048 20.3758 0.183516 20.3514 0.22022C20.3453 0.226337 20.333 0.232454 20.3208 0.244688C20.2413 0.348681 20.1189 0.458791 19.9476 0.568289C19.1952 1.07663 17.9351 1.38249 16.5771 1.38249C14.644 1.38249 13.2799 0.783615 12.8272 0.226337C12.8211 0.22022 12.8088 0.213491 12.8027 0.207985C12.7721 0.171282 12.7354 0.15293 12.7049 0.122344C12.6743 0.103992 12.6437 0.0795237 12.6131 0.0605604C12.5764 0.0489377 12.5397 0.0428206 12.503 0.0305862C12.4663 0.0183518 12.4235 0.00611735 12.3806 0.00611735C12.3684 0.00611735 12.3629 0 12.3501 0H12.0381C12.0008 0 11.9647 -1.13942e-08 11.928 0.0122344C11.7016 0.0495494 6.47754 2.47747 6.41575 2.50806C6.19614 2.61205 6.00039 2.7711 5.84135 2.97296L5.68842 3.18707C3.88996 5.68901 2.09761 8.19706 0.30527 10.699C-0.104584 11.2679 -0.0379059 11.9286 0.482669 12.3684C1.82173 13.5429 3.17975 14.7113 4.53165 15.8736C4.80081 16.0999 5.10667 16.21 5.42476 16.1794C5.74898 16.1549 6.04933 15.9892 6.30014 15.6962C6.35519 15.6289 6.40413 15.5555 6.45918 15.4814L7.34618 14.3069V31.5403C7.34618 32.5252 7.80497 32.984 8.78923 32.984H24.401C24.4988 32.984 24.6028 32.984 24.7252 32.9779C25.3057 32.9289 25.7712 32.4702 25.8202 31.8701C25.8263 31.7544 25.8263 31.626 25.8263 31.503V14.302C26.1505 14.7364 26.4686 15.1646 26.7867 15.5867C27.0436 15.9353 27.3495 16.1372 27.6975 16.1745C28.0462 16.2167 28.3827 16.0944 28.7258 15.8069L30.0649 14.6452C30.9158 13.9044 31.7655 13.1642 32.6158 12.4308C33.1969 11.9347 33.2703 11.2869 32.8237 10.6568L30.8179 7.8545Z" fill="#CC0E13"/>
</svg>
