<svg width="55" height="54" viewBox="0 0 55 54" fill="none" xmlns="http://www.w3.org/2000/svg">
<path d="M50.3152 12.84C48.4242 10.2 46.5352 7.56 44.6152 4.901C44.3452 4.56 43.9752 4.26 43.6052 4.08C43.5152 4.04 35.0252 0.1 34.6342 0.0300002C34.5752 0.0100002 34.5152 0.0100002 34.4552 0.0100002H33.9452C33.9242 0.0100002 33.9152 0.02 33.8842 0.02C33.8152 0.03 33.7552 0.0399999 33.6852 0.0599999C33.6252 0.0799999 33.5652 0.0899999 33.5152 0.12C33.4542 0.15 33.4142 0.18 33.3552 0.22C33.3052 0.26 33.2452 0.3 33.2052 0.36C33.1952 0.37 33.1752 0.38 33.1552 0.4C33.0252 0.57 32.8252 0.75 32.5452 0.929C31.3152 1.76 29.2552 2.26 27.0352 2.26C23.8752 2.26 21.6452 1.281 20.9052 0.37C20.8952 0.36 20.8752 0.349 20.8652 0.34C20.8152 0.28 20.7552 0.25 20.7052 0.2C20.6552 0.17 20.6052 0.13 20.5552 0.099C20.4952 0.08 20.4352 0.0700002 20.3752 0.0500002C20.3152 0.0300002 20.2452 0.0100002 20.1752 0.0100002C20.1552 0.0100002 20.1462 0 20.1252 0H19.6152C19.5542 0 19.4952 -1.86265e-08 19.4352 0.02C19.0652 0.081 10.5252 4.05 10.4242 4.1C10.0652 4.27 9.74518 4.53 9.48518 4.86L9.23518 5.21C6.29518 9.3 3.36518 13.4 0.435177 17.49C-0.234823 18.42 -0.125823 19.5 0.725177 20.219C2.91418 22.139 5.13418 24.049 7.34418 25.949C7.78418 26.319 8.28418 26.499 8.80418 26.449C9.33418 26.409 9.82518 26.138 10.2352 25.659C10.3252 25.549 10.4052 25.429 10.4952 25.308L11.9452 23.388V51.56C11.9452 53.17 12.6952 53.92 14.3042 53.92H39.8252C39.9852 53.92 40.1552 53.92 40.3552 53.91C41.3042 53.83 42.0652 53.08 42.1452 52.099C42.1552 51.91 42.1552 51.7 42.1552 51.499V23.38C42.6852 24.09 43.2052 24.79 43.7252 25.48C44.1452 26.05 44.6452 26.38 45.2142 26.441C45.7842 26.51 46.3342 26.31 46.8952 25.84L49.0842 23.941C50.4752 22.73 51.8642 21.52 53.2542 20.321C54.2042 19.51 54.3242 18.451 53.5942 17.421L50.3152 12.84Z" fill="#0040FF"/>
</svg>
